# AST/ASF file generated using VICON BodyLanguage
# -----------------------------------------------
:version 1.10
:name VICON
:units
  mass 1.0
  length 0.45
  angle deg
:documentation
   .ast/.asf automatically generated from VICON data using
   VICON BodyBuilder and BodyLanguage model FoxedUp or BRILLIANT.MOD
:root
   order TX TY TZ RX RY RZ
   axis XYZ
   position 0 0 0  
   orientation 0 0 0 
:bonedata
  begin
     id 1 
     name lhipjoint
     direction 0.661853 -0.702389 0.261917 
     length 2.64193 
     axis 0 0 0  XYZ
  end
  begin
     id 2 
     name lfemur
     direction 0.34202 -0.939693 0  
     length 7.01722  
     axis 0 0 20  XYZ
    dof rx ry rz
    limits (-160.0 20.0)
           (-70.0 70.0)
           (-60.0 70.0)
  end
  begin
     id 3 
     name ltibia
     direction 0.34202 -0.939693 0   
     length 8.25008   
     axis 0 0 20   XYZ
    dof rx
    limits (-10.0 170.0)
  end
  begin
     id 4 
     name lfoot
     direction 0.0709916 -0.195048 0.978221   
     length 2.31941   
     axis -90 7.62852e-016 20   XYZ
    dof rx rz
    limits (-45.0 90.0)
           (-70.0 20.0)
  end
  begin
     id 5 
     name ltoes
     direction 1.53586e-011 -4.22017e-011 1   
     length 1.16486   
     axis -90 7.62852e-016 20   XYZ
    dof rx
    limits (-90.0 20.0)
  end
  begin
     id 6 
     name rhipjoint
     direction -0.638185 -0.721362 0.268992   
     length 2.57244  
     axis 0 0 0  XYZ 
  end
  begin
     id 7 
     name rfemur
     direction -0.34202 -0.939693 0   
     length 7.07017   
     axis 0 0 -20   XYZ
    dof rx ry rz
    limits (-160.0 20.0)
           (-70.0 70.0)
           (-70.0 60.0)
  end
  begin
     id 8 
     name rtibia
     direction -0.34202 -0.939693 0   
     length 8.20386   
     axis 0 0 -20   XYZ
    dof rx
    limits (-10.0 170.0)
 end
 begin
     id 9 
     name rfoot
     direction -0.0822429 -0.225961 0.970658   
     length 2.32215  
     axis -90 -7.62852e-016 -20   XYZ
    dof rx rz
    limits (-45.0 90.0)
           (-20.0 70.0)
  end
  begin
     id 10 
     name rtoes
     direction -1.53597e-011 -4.21689e-011 1   
     length 1.16333   
     axis -90 -7.62852e-016 -20   XYZ
    dof rx
    limits (-90.0 20.0)
  end
  begin
     id 11 
     name lowerback
     direction -0.0131557 0.998589 -0.0514484   
     length 2.14993   
     axis 0 0 0   XYZ
    dof rx ry rz
    limits (-20.0 45.0)
           (-30.0 30.0)
           (-30.0 30.0)
  end
  begin
     id 12 
     name upperback
     direction -0.000776481 0.999993 0.00352685   
     length 2.15301   
     axis 0 0 0   XYZ
    dof rx ry rz
    limits (-20.0 45.0)
           (-30.0 30.0)
           (-30.0 30.0)
  end
  begin
     id 13 
     name thorax
     direction 0.00438186 0.999609 0.0276143   
     length 2.15424   
     axis 0 0 0   XYZ
    dof rx ry rz
    limits (-20.0 45.0)
           (-30.0 30.0)
           (-30.0 30.0)
  end
  begin
     id 14 
     name lowerneck
     direction -0.0488006 0.998094 0.0377807   
     length 1.90481   
     axis 0 0 0   XYZ
    dof rx ry rz
    limits (-20.0 45.0)
           (-30.0 30.0)
           (-30.0 30.0)
  end
  begin
     id 15 
     name upperneck
     direction 0.0443769 0.990702 -0.12861   
     length 1.91305   
     axis 0 0 0   XYZ
    dof rx ry rz
    limits (-20.0 45.0)
           (-30.0 30.0)
           (-30.0 30.0)
  end
  begin
     id 16
     name head
     direction 0.0165599 0.998647 -0.0492982  
     length 1.92369  
     axis 0 0 0   XYZ
    dof rx ry rz
    limits (-20.0 45.0)
           (-30.0 30.0)
           (-30.0 30.0)
  end
  begin
     id 17 
     name lclavicle
     direction 0.911936 0.410197 -0.0105506  
     length 3.52622  
     axis 0 0 0   XYZ
    dof ry rz
    limits (-20.0 10.0)
           (0.0 20.0)
  end
  begin
     id 18 
     name lhumerus
     direction 1 -4.48974e-011 -2.48591e-028   
     length 5.47651   
     axis 180 -30 -90   XYZ
    dof rx ry rz
    limits (-60.0 90.0)
           (-90.0 90.0)
           (-90.0 90.0)
  end
  begin
     id 19
     name lradius
     direction 1 -4.48938e-011 -4.40099e-027   
     length 3.09058   
     axis 180 -30 -90   XYZ
    dof rx
    limits (-10.0 170.0)
  end
  begin
     id 20
     name lwrist
     direction 1 -4.49042e-011 -2.99852e-027   
     length 1.54529   
     axis 1.95339e-015 90 90   XYZ
    dof ry
    limits (-180.0 0.0)
 end
  begin
     id 21 
     name lhand
     direction 1 -4.48815e-011 -5.98193e-027   
     length 0.771611   
     axis 3.82337e-015 90 90   XYZ
    dof rx rz
    limits (-90.0 90.0)
           (-45.0 45.0)
  end
  begin
     id 22 
     name lfingers
     direction 1 -4.49034e-011 -1.1993e-026   
     length 0.622093   
     axis 7.64668e-015 90 90   XYZ
    dof rx
    limits (0.0 90.0)
  end
  begin
     id 23
     name lthumb
     direction 0.707107 -6.34867e-011 0.707107   
     length 0.893204   
     axis -90 45 -1.62303e-014   XYZ
    dof rx rz
    limits (-45.0 45.0)
           (-45.0 45.0)
  end
  begin
     id 24 
     name rclavicle
     direction -0.93442 0.355634 -0.0195692   
     length 3.62463  
     axis 0 0 0   XYZ 
    dof ry rz
    limits (-10.0 20.0)
           (-20.0 0.0)
  end
  begin
     id 25 
     name rhumerus
     direction -1 -4.48957e-011 -1.19147e-027  
     length 5.14182   
     axis 180 30 90   XYZ
    dof rx ry rz
    limits (-90.0 60.0)
           (-90.0 90.0)
           (-90.0 90.0)
  end
  begin
     id 26 
     name rradius
     direction -1 -4.48952e-011 -3.81062e-027   
     length 3.35565   
     axis 180 30 90   XYZ
    dof rx
    limits (-10.0 170.0)
  end
  begin
     id 27 
     name rwrist
     direction -1 -4.48973e-011 -2.99621e-027   
     length 1.67782   
     axis 1.95339e-015 -90 -90   XYZ
    dof ry
    limits (-180.0 0.0)
  end
  begin
     id 28
     name rhand
     direction -1 -4.48895e-011 -5.98727e-027   
     length 0.801042   
     axis 3.82337e-015 -90 -90   XYZ
    dof rx rz
    limits (-90.0 90.0)
           (-45.0 45.0)
  end
  begin
     id 29
     name rfingers
     direction -1 -4.49065e-011 -1.19972e-026   
     length 0.645821   
     axis 7.64668e-015 -90 -90   XYZ
    dof rx
    limits (0.0 90.0)
  end
  begin
     id 30
     name rthumb
     direction -0.707107 -6.34957e-011 0.707107   
     length 0.927273   
     axis -90 -45 1.62303e-014   XYZ
    dof rx rz
    limits (-45.0 45.0)
           (-45.0 45.0)
  end
:hierarchy
  begin
    root lhipjoint rhipjoint lowerback
    lhipjoint lfemur
    lfemur ltibia
    ltibia lfoot
    lfoot ltoes
    rhipjoint rfemur
    rfemur rtibia
    rtibia rfoot
    rfoot rtoes
    lowerback upperback
    upperback thorax
    thorax lowerneck lclavicle rclavicle
    lowerneck upperneck
    upperneck head
    lclavicle lhumerus
    lhumerus lradius
    lradius lwrist
    lwrist lhand lthumb
    lhand lfingers
    rclavicle rhumerus
    rhumerus rradius
    rradius rwrist
    rwrist rhand rthumb
    rhand rfingers
  end

#!OML:ASF E:\Style4\Style4.ASF
:FULLY-SPECIFIED
:DEGREES
500
root -0.0700338 17.3093 -1.10876 -1.87281 -17.8237 3.12652
lowerback 12.562 0.870567 -5.3229
upperback 10.8871 0.571452 0.730561
thorax 4.4305 -0.123197 3.70215
lowerneck 10.8577 -4.16438 -6.44742
upperneck 0.345964 -6.20227 3.78446
head -1.43519 -3.18004 2.61427
rclavicle 2.55438e-014 1.98785e-016
rhumerus 10.2697 18.7763 -87.7099
rradius 133.489
rwrist 18.579
rhand 34.9192 -10.6558
rfingers 7.12502
rthumb 58.0668 -26.3172
lclavicle 2.55438e-014 1.98785e-016
lhumerus 28.3368 -21.0643 87.8031
lradius 128.04
lwrist -20.2289
lhand 21.3052 44.3088
lfingers 7.12502
lthumb 45.749 67.5071
rfemur -22.8157 4.12608 16.9263
rtibia 44.5842
rfoot -19.6517 -10.4381
rtoes -12.4824
lfemur -16.1654 13.0084 -20.831
ltibia 42.102
lfoot -25.8759 16.3689
ltoes -10.7895
501
root -0.0703761 17.3084 -1.10915 -1.87856 -17.9773 3.24597
lowerback 12.5143 0.877534 -5.47519
upperback 10.9401 0.572574 0.633556
thorax 4.5162 -0.132583 3.68555
lowerneck 10.7822 -3.99549 -6.67601
upperneck 0.382379 -6.00129 3.84942
head -1.41399 -3.08162 2.66704
rclavicle 2.20651e-014 -2.46493e-014
rhumerus 10.6445 19.1497 -87.4199
rradius 133.641
rwrist 18.3456
rhand 34.2693 -10.4603
rfingers 7.12502
rthumb 57.4988 -26.623
lclavicle 2.20651e-014 -2.46493e-014
lhumerus 27.8036 -21.275 87.8355
lradius 128.046
lwrist -20.4364
lhand 21.4482 44.2563
lfingers 7.12502
lthumb 45.8817 67.3999
rfemur -22.9305 4.1754 16.8044
rtibia 44.6728
rfoot -19.6273 -10.3591
rtoes -12.4813
lfemur -16.1831 13.0931 -20.9651
ltibia 42.1106
lfoot -25.9238 16.4717
ltoes -11.0176
502
root -0.0699552 17.3066 -1.1117 -1.84967 -18.0998 3.30416
lowerback 12.5095 0.960055 -5.41822
upperback 10.9885 0.689766 0.482023
thorax 4.5594 -0.0666388 3.4834
lowerneck 10.6348 -3.95286 -6.59782
upperneck 0.466837 -5.92695 3.8543
head -1.3664 -3.0449 2.6441
rclavicle 2.08724e-015 -3.77691e-015
rhumerus 11.0607 19.158 -87.0992
rradius 133.812
rwrist 18.1406
rhand 33.4642 -10.2978
rfingers 7.12502
rthumb 56.7916 -27.0562
lclavicle 2.08724e-015 -3.77691e-015
lhumerus 27.2662 -21.8065 87.8218
lradius 128.123
lwrist -20.6581
lhand 21.6419 44.2091
lfingers 7.12502
lthumb 46.0615 67.278
rfemur -23.0628 4.23344 16.7474
rtibia 44.7478
rfoot -19.6475 -10.2727
rtoes -12.2897
lfemur -16.2478 13.1101 -21.042
ltibia 42.1356
lfoot -25.9246 16.5313
ltoes -10.9542
503
root -0.0710584 17.3044 -1.11401 -1.80974 -18.2281 3.2762
lowerback 12.5194 1.02288 -5.32108
upperback 11.0176 0.781807 0.38413
thorax 4.57633 -0.0117531 3.31752
lowerneck 10.5933 -3.89674 -6.54804
upperneck 0.540601 -5.84563 3.82283
head -1.3417 -3.00426 2.61836
rclavicle -3.47873e-015 8.15017e-015
rhumerus 11.4952 19.2435 -86.7796
rradius 134.004
rwrist 17.9938
rhand 32.9113 -10.2664
rfingers 7.12502
rthumb 56.3035 -27.4182
lclavicle -3.47873e-015 8.15017e-015
lhumerus 26.5504 -22.2736 87.8465
lradius 128.273
lwrist -20.8627
lhand 21.9162 44.1532
lfingers 7.12502
lthumb 46.3158 67.1151
rfemur -23.1612 4.34931 16.7922
rtibia 44.805
rfoot -19.6635 -10.2683
rtoes -12.1384
lfemur -16.2971 13.1462 -21.0142
ltibia 42.1683
lfoot -25.9637 16.5816
ltoes -10.8371
504
root -0.0732707 17.3021 -1.11482 -1.79451 -18.3503 3.30749
lowerback 12.5078 1.11154 -5.27126
upperback 11.04 0.905687 0.279361
thorax 4.59563 0.0566725 3.16849
lowerneck 10.6502 -3.87176 -6.44231
upperneck 0.524607 -5.80337 3.80252
head -1.36265 -2.98284 2.59354
rclavicle 6.85807e-015 1.74931e-014
rhumerus 11.984 19.1701 -86.488
rradius 134.114
rwrist 17.9067
rhand 32.3301 -10.0437
rfingers 7.12502
rthumb 55.7887 -27.5961
lclavicle 6.85807e-015 1.74931e-014
lhumerus 25.6285 -22.7975 87.9969
lradius 128.487
lwrist -20.5735
lhand 22.084 44.1049
lfingers 7.12502
lthumb 46.4713 67.0005
rfemur -23.2373 4.48059 16.7739
rtibia 44.8491
rfoot -19.6102 -10.3214
rtoes -12.3522
lfemur -16.3229 13.1951 -21.0455
ltibia 42.2026
lfoot -26.0995 16.6044
ltoes -10.5945
505
root -0.0746246 17.3003 -1.11722 -1.78423 -18.4249 3.33882
lowerback 12.5541 1.19181 -5.23863
upperback 11.0466 1.01253 0.21342
thorax 4.5684 0.115547 3.07094
lowerneck 10.6411 -3.84254 -6.435
upperneck 0.59619 -5.76271 3.84798
head -1.33904 -2.96454 2.60385
rclavicle 4.30369e-014 -2.3059e-014
rhumerus 12.484 18.9894 -86.179
rradius 134.188
rwrist 17.8412
rhand 31.6504 -9.77914
rfingers 7.12502
rthumb 55.1843 -27.7837
lclavicle 4.30369e-014 -2.3059e-014
lhumerus 24.5735 -23.2695 88.2482
lradius 128.731
lwrist -19.926
lhand 22.2159 44.0539
lfingers 7.12502
lthumb 46.5935 66.8971
rfemur -23.3004 4.57939 16.7511
rtibia 44.8793
rfoot -19.5524 -10.3412
rtoes -12.637
lfemur -16.3596 13.2369 -21.0826
ltibia 42.2373
lfoot -26.1327 16.6185
ltoes -10.1463
506
root -0.0743779 17.3005 -1.11919 -1.75758 -18.5172 3.33943
lowerback 12.667 1.27092 -5.12613
upperback 11.0031 1.11995 0.123493
thorax 4.45096 0.184205 2.90199
lowerneck 10.6611 -3.82723 -6.36144
upperneck 0.7007 -5.73382 3.92888
head -1.30994 -2.95358 2.61455
rclavicle -7.15625e-015 1.25234e-014
rhumerus 12.9217 18.7841 -85.98
rradius 134.177
rwrist 17.832
rhand 30.7616 -9.61333
rfingers 7.12502
rthumb 54.3904 -28.184
lclavicle -7.15625e-015 1.25234e-014
lhumerus 23.6522 -23.8363 88.3709
lradius 129.133
lwrist -19.3557
lhand 22.5771 44.2941
lfingers 7.12502
lthumb 46.9278 66.992
rfemur -23.3719 4.70237 16.7484
rtibia 44.9071
rfoot -19.5545 -10.2913
rtoes -12.3586
lfemur -16.4087 13.2993 -21.0919
ltibia 42.257
lfoot -26.1283 16.6959
ltoes -10.0925
507
root -0.073034 17.2994 -1.11971 -1.7171 -18.6197 3.33793
lowerback 12.8079 1.31669 -4.9917
upperback 10.923 1.18308 0.0308987
thorax 4.28339 0.233849 2.72102
lowerneck 10.703 -3.78851 -6.2844
upperneck 0.79006 -5.67643 3.94348
head -1.293 -2.92671 2.60274
rclavicle -1.27222e-014 2.84262e-014
rhumerus 13.4034 18.7167 -85.8075
rradius 134.08
rwrist 17.8781
rhand 29.7299 -9.61711
rfingers 7.12502
rthumb 53.464 -28.8112
lclavicle -1.27222e-014 2.84262e-014
lhumerus 22.7265 -24.3091 88.5413
lradius 129.746
lwrist -18.764
lhand 23.1158 44.7101
lfingers 7.12502
lthumb 47.4258 67.1864
rfemur -23.4562 4.8509 16.7429
rtibia 44.9412
rfoot -19.5368 -10.2832
rtoes -12.1509
lfemur -16.4706 13.3526 -21.1026
ltibia 42.2769
lfoot -26.1406 16.7829
ltoes -10.2691
508
root -0.0716523 17.2981 -1.12062 -1.70017 -18.6872 3.36532
lowerback 12.9023 1.3293 -4.9783
upperback 10.9015 1.19457 0.00711285
thorax 4.20863 0.243447 2.68596
lowerneck 10.6922 -3.72486 -6.28523
upperneck 0.82104 -5.59341 3.88972
head -1.28698 -2.88434 2.58101
rclavicle 6.89783e-014 -2.94201e-014
rhumerus 14.0376 18.8138 -85.5453
rradius 133.959
rwrist 18.0239
rhand 28.9666 -9.73362
rfingers 7.12502
rthumb 52.7755 -29.3671
lclavicle 6.89783e-014 -2.94201e-014
lhumerus 21.7181 -24.6012 88.8191
lradius 130.32
lwrist -18.2071
lhand 23.6237 45.0852
lfingers 7.12502
lthumb 47.8946 67.347
rfemur -23.5263 4.96409 16.7154
rtibia 44.9756
rfoot -19.5491 -10.3125
rtoes -12.353
lfemur -16.5034 13.374 -21.1361
ltibia 42.3065
lfoot -26.2873 16.7185
ltoes -9.74418
509
root -0.0708579 17.2964 -1.12246 -1.72088 -18.7384 3.42195
lowerback 12.9526 1.38626 -5.01107
upperback 10.9478 1.26345 0.0268938
thorax 4.22604 0.273567 2.71826
lowerneck 10.6366 -3.72023 -6.29389
upperneck 0.834085 -5.58603 3.8495
head -1.27401 -2.87934 2.56656
rclavicle -1.90833e-014 3.04141e-014
rhumerus 14.8 18.7005 -85.1961
rradius 133.707
rwrist 18.1689
rhand 28.4067 -9.667
rfingers 7.12502
rthumb 52.269 -29.6115
lclavicle -1.90833e-014 3.04141e-014
lhumerus 20.7549 -24.9397 89.1723
lradius 130.887
lwrist -17.6016
lhand 24.126 45.5536
lfingers 7.12502
lthumb 48.3575 67.5978
rfemur -23.5698 5.07219 16.6582
rtibia 45.0158
rfoot -19.5238 -10.3406
rtoes -12.3261
lfemur -16.5064 13.4305 -21.1863
ltibia 42.3414
lfoot -26.44 16.5547
ltoes -8.98393
510
root -0.0690145 17.2955 -1.1247 -1.69355 -18.8236 3.42267
lowerback 12.9817 1.46203 -4.94926
upperback 10.9781 1.3665 0.0424363
thorax 4.23486 0.327448 2.69003
lowerneck 10.5459 -3.75743 -6.26195
upperneck 0.883169 -5.62632 3.86117
head -1.24013 -2.89948 2.5614
rclavicle -9.83984e-015 3.97569e-016
rhumerus 15.6049 18.4646 -84.8605
rradius 133.309
rwrist 18.4577
rhand 27.69 -9.49798
rfingers 7.12502
rthumb 51.6187 -29.8274
lclavicle -9.83984e-015 3.97569e-016
lhumerus 19.8302 -25.3148 89.5114
lradius 131.533
lwrist -16.8526
lhand 24.6136 45.9843
lfingers 7.12502
lthumb 48.8062 67.812
rfemur -23.6449 5.21322 16.6545
rtibia 45.043
rfoot -19.4932 -10.3716
rtoes -12.212
lfemur -16.5865 13.5549 -21.2005
ltibia 42.3818
lfoot -26.3736 16.6693
ltoes -9.24439
511
root -0.0675427 17.2943 -1.12644 -1.69016 -18.8827 3.45132
lowerback 12.9939 1.51856 -4.9255
upperback 11.0215 1.44212 0.0611287
thorax 4.26921 0.364207 2.6894
lowerneck 10.5967 -3.80092 -6.23727
upperneck 0.765821 -5.68152 3.88861
head -1.28425 -2.92654 2.57275
rclavicle 7.65321e-015 -5.96354e-015
rhumerus 16.3823 18.2759 -84.5661
rradius 132.851
rwrist 18.9699
rhand 27.2018 -9.33806
rfingers 7.12502
rthumb 51.1746 -29.9215
lclavicle 7.65321e-015 -5.96354e-015
lhumerus 19.02 -25.6816 89.8
lradius 132.182
lwrist -16.2996
lhand 24.8667 46.4261
lfingers 7.12502
lthumb 49.0387 68.1394
rfemur -23.6903 5.33716 16.6191
rtibia 45.0548
rfoot -19.4623 -10.3952
rtoes -12.1056
lfemur -16.6267 13.6536 -21.2376
ltibia 42.4019
lfoot -26.3974 16.7003
ltoes -9.2009
512
root -0.0672414 17.2957 -1.12865 -1.679 -18.9112 3.50574
lowerback 12.9638 1.56466 -4.91857
upperback 11.0683 1.50534 0.0863263
thorax 4.33081 0.392839 2.70705
lowerneck 10.7368 -3.8517 -6.26967
upperneck 0.57404 -5.75685 3.93194
head -1.36571 -2.9638 2.60583
rclavicle -4.60187e-014 6.16232e-015
rhumerus 17.1685 18.0803 -84.3201
rradius 132.355
rwrist 19.4194
rhand 27.244 -9.35693
rfingers 7.12502
rthumb 51.213 -29.9187
lclavicle -4.60187e-014 6.16232e-015
lhumerus 18.3165 -25.9617 90.1243
lradius 132.868
lwrist -15.8349
lhand 25.1467 46.788
lfingers 7.12502
lthumb 49.2958 68.3728
rfemur -23.743 5.43109 16.5592
rtibia 45.0525
rfoot -19.4197 -10.4192
rtoes -12.0992
lfemur -16.6696 13.7727 -21.2912
ltibia 42.4103
lfoot -26.4015 16.6715
ltoes -9.40608
